<svg xmlns="http://www.w3.org/2000/svg" xmlns:xlink="http://www.w3.org/1999/xlink" width="500" zoomAndPan="magnify" viewBox="0 0 375 374.999991" height="500" preserveAspectRatio="xMidYMid meet" version="1.0"><defs><clipPath id="ec6ee0ae35"><path d="M 1.703125 70.0625 L 373.429688 70.0625 L 373.429688 304.691406 L 1.703125 304.691406 Z M 1.703125 70.0625 " clip-rule="nonzero"/></clipPath></defs><g clip-path="url(#ec6ee0ae35)"><path fill="#000000" d="M 119.007812 85.664062 C 141.015625 85.664062 161.273438 92.875 177.925781 104.796875 C 156.351562 125.757812 142.828125 154.980469 142.828125 187.367188 C 142.828125 219.753906 156.351562 248.957031 177.945312 269.9375 C 161.273438 281.859375 141.015625 289.050781 119.007812 289.050781 C 62.929688 289.050781 17.324219 243.445312 17.324219 187.367188 C 17.324219 131.289062 62.929688 85.664062 119.007812 85.664062 Z M 119.007812 304.691406 C 145.882812 304.691406 170.351562 295.25 190.152344 280.007812 C 209.28125 294.085938 232.648438 302.667969 258.148438 302.667969 C 321.722656 302.667969 373.449219 250.941406 373.449219 187.367188 C 373.449219 123.792969 321.722656 72.046875 258.148438 72.046875 C 232.648438 72.046875 209.28125 80.648438 190.152344 94.707031 C 170.351562 79.464844 145.882812 70.042969 119.007812 70.042969 C 54.328125 70.042969 1.703125 122.667969 1.703125 187.367188 C 1.703125 252.066406 54.328125 304.691406 119.007812 304.691406 " fill-opacity="1" fill-rule="nonzero"/></g></svg>